<mxfile host="65bd71144e">
    <diagram id="BL9Lf0YGzoe6cAcqNsYM" name="Page-1">
        <mxGraphModel dx="3041" dy="949" grid="1" gridSize="10" guides="1" tooltips="1" connect="1" arrows="1" fold="1" page="1" pageScale="1" pageWidth="850" pageHeight="1100" math="0" shadow="0">
            <root>
                <mxCell id="0"/>
                <mxCell id="1" parent="0"/>
                <mxCell id="61" style="edgeStyle=none;html=1;exitX=0.5;exitY=0;exitDx=0;exitDy=0;entryX=1;entryY=0.75;entryDx=0;entryDy=0;endArrow=classic;endFill=1;strokeWidth=3;" parent="1" source="8" target="37" edge="1">
                    <mxGeometry relative="1" as="geometry">
                        <Array as="points">
                            <mxPoint x="450" y="40"/>
                            <mxPoint x="540" y="30"/>
                            <mxPoint x="630" y="40"/>
                            <mxPoint x="730" y="150"/>
                            <mxPoint x="790" y="260"/>
                            <mxPoint x="830" y="410"/>
                            <mxPoint x="840" y="540"/>
                            <mxPoint x="820" y="690"/>
                            <mxPoint x="760" y="840"/>
                            <mxPoint x="650" y="888"/>
                        </Array>
                    </mxGeometry>
                </mxCell>
                <mxCell id="63" style="edgeStyle=none;html=1;entryX=1;entryY=0.5;entryDx=0;entryDy=0;strokeWidth=3;endArrow=classic;endFill=1;exitX=0.391;exitY=0.019;exitDx=0;exitDy=0;exitPerimeter=0;" parent="1" source="8" target="29" edge="1">
                    <mxGeometry relative="1" as="geometry">
                        <Array as="points">
                            <mxPoint x="330" y="30"/>
                            <mxPoint x="460" y="20"/>
                            <mxPoint x="560" y="40"/>
                            <mxPoint x="630" y="80"/>
                            <mxPoint x="690" y="160"/>
                            <mxPoint x="720" y="250"/>
                            <mxPoint x="720" y="350"/>
                            <mxPoint x="670" y="440"/>
                            <mxPoint x="610" y="500"/>
                        </Array>
                    </mxGeometry>
                </mxCell>
                <mxCell id="78" style="edgeStyle=none;html=1;exitX=0.637;exitY=-0.009;exitDx=0;exitDy=0;entryX=0;entryY=0.5;entryDx=0;entryDy=0;strokeWidth=3;endArrow=classic;endFill=1;exitPerimeter=0;" parent="1" source="8" target="69" edge="1">
                    <mxGeometry relative="1" as="geometry">
                        <Array as="points">
                            <mxPoint x="200" y="40"/>
                            <mxPoint x="90" y="30"/>
                            <mxPoint x="-20" y="40"/>
                            <mxPoint x="-130" y="150"/>
                            <mxPoint x="-190" y="300"/>
                            <mxPoint x="-210" y="530"/>
                            <mxPoint x="-170" y="760"/>
                            <mxPoint x="-90" y="910"/>
                        </Array>
                    </mxGeometry>
                </mxCell>
                <mxCell id="8" value="Logo&lt;span style=&quot;white-space: pre;&quot;&gt;&#9;&lt;/span&gt;&lt;span style=&quot;white-space: pre;&quot;&gt;&#9;&lt;/span&gt;&lt;span style=&quot;white-space: pre;&quot;&gt;&#9;&lt;/span&gt;Accueil&amp;nbsp; &amp;nbsp;Paniers&amp;nbsp; &amp;nbsp;A propos&amp;nbsp; &amp;nbsp;S'inscrire&lt;span style=&quot;white-space: pre;&quot;&gt;&#9;&lt;/span&gt;&lt;span style=&quot;white-space: pre;&quot;&gt;&#9;&lt;span style=&quot;white-space: pre;&quot;&gt;&#9;&lt;/span&gt;&lt;/span&gt;Compte Panier" style="whiteSpace=wrap;html=1;" parent="1" vertex="1">
                    <mxGeometry x="20" y="80" width="500" height="60" as="geometry"/>
                </mxCell>
                <mxCell id="2" value="Slider" style="whiteSpace=wrap;html=1;fillColor=#6b6a6c;" parent="1" vertex="1">
                    <mxGeometry x="20" y="140" width="500" height="220" as="geometry"/>
                </mxCell>
                <mxCell id="20" value="" style="edgeStyle=none;orthogonalLoop=1;jettySize=auto;html=1;endArrow=none;endFill=0;" parent="1" edge="1">
                    <mxGeometry width="80" relative="1" as="geometry">
                        <mxPoint x="60" y="240" as="sourcePoint"/>
                        <mxPoint x="60" y="260" as="targetPoint"/>
                        <Array as="points">
                            <mxPoint x="40" y="250"/>
                        </Array>
                    </mxGeometry>
                </mxCell>
                <mxCell id="21" value="" style="edgeStyle=none;orthogonalLoop=1;jettySize=auto;html=1;endArrow=none;endFill=0;" parent="1" edge="1">
                    <mxGeometry width="80" relative="1" as="geometry">
                        <mxPoint x="480" y="240" as="sourcePoint"/>
                        <mxPoint x="480" y="260" as="targetPoint"/>
                        <Array as="points">
                            <mxPoint x="500" y="250"/>
                        </Array>
                    </mxGeometry>
                </mxCell>
                <mxCell id="23" value="" style="shape=stencil(tZRtDsIgDIZPw1/DRzyAQb0Hus4RERZAp7e3GzOR6dSYLSEkfQtPXwKFCBkqVQPhtCJiTThnlOKMcTOIVahhH5N4UV6rnYGUCdG7IzS6iD1D2wq8jm1WbAhd4Zp2CLl31iJEOxuyzFMeYUpb3EuvCdaXv2VRjfwTRPC9yaQSvv0du1jOA2Yz+c2xD/eT+50OnDtmc13cZGD2P1ZIVMYet5Cl83Dw7myLt2ZKbUzqoQ+OwRhdB/jSF8OmHTb1GH20fHeyF/+dmj6OTrgD);whiteSpace=wrap;html=1;gradientColor=default;" parent="1" vertex="1">
                    <mxGeometry x="244" y="330" width="10" height="10" as="geometry"/>
                </mxCell>
                <mxCell id="24" value="" style="shape=stencil(tZRtDsIgDIZPw1/DRzyAQb0Hus4RERZAp7e3GzOR6dSYLSEkfQtPXwKFCBkqVQPhtCJiTThnlOKMcTOIVahhH5N4UV6rnYGUCdG7IzS6iD1D2wq8jm1WbAhd4Zp2CLl31iJEOxuyzFMeYUpb3EuvCdaXv2VRjfwTRPC9yaQSvv0du1jOA2Yz+c2xD/eT+50OnDtmc13cZGD2P1ZIVMYet5Cl83Dw7myLt2ZKbUzqoQ+OwRhdB/jSF8OmHTb1GH20fHeyF/+dmj6OTrgD);whiteSpace=wrap;html=1;gradientColor=default;" parent="1" vertex="1">
                    <mxGeometry x="266" y="330" width="10" height="10" as="geometry"/>
                </mxCell>
                <mxCell id="25" value="" style="shape=stencil(tZRtDsIgDIZPw1/DRzyAQb0Hus4RERZAp7e3GzOR6dSYLSEkfQtPXwKFCBkqVQPhtCJiTThnlOKMcTOIVahhH5N4UV6rnYGUCdG7IzS6iD1D2wq8jm1WbAhd4Zp2CLl31iJEOxuyzFMeYUpb3EuvCdaXv2VRjfwTRPC9yaQSvv0du1jOA2Yz+c2xD/eT+50OnDtmc13cZGD2P1ZIVMYet5Cl83Dw7myLt2ZKbUzqoQ+OwRhdB/jSF8OmHTb1GH20fHeyF/+dmj6OTrgD);whiteSpace=wrap;html=1;gradientColor=default;" parent="1" vertex="1">
                    <mxGeometry x="289" y="330" width="10" height="10" as="geometry"/>
                </mxCell>
                <mxCell id="29" value="" style="whiteSpace=wrap;html=1;fillColor=#FFFFFF;gradientColor=none;" parent="1" vertex="1">
                    <mxGeometry x="20" y="360" width="500" height="340" as="geometry"/>
                </mxCell>
                <mxCell id="30" value="" style="whiteSpace=wrap;html=1;fillColor=#999999;gradientColor=none;strokeColor=#000000;" parent="1" vertex="1">
                    <mxGeometry x="365" y="410" width="120" height="120" as="geometry"/>
                </mxCell>
                <mxCell id="31" value="" style="whiteSpace=wrap;html=1;fillColor=#999999;gradientColor=none;strokeColor=#000000;" parent="1" vertex="1">
                    <mxGeometry x="210" y="410" width="120" height="120" as="geometry"/>
                </mxCell>
                <mxCell id="32" value="" style="whiteSpace=wrap;html=1;fillColor=#999999;gradientColor=none;strokeColor=#000000;" parent="1" vertex="1">
                    <mxGeometry x="60" y="410" width="120" height="120" as="geometry"/>
                </mxCell>
                <mxCell id="33" value="" style="whiteSpace=wrap;html=1;fillColor=#999999;gradientColor=none;strokeColor=#000000;" parent="1" vertex="1">
                    <mxGeometry x="60" y="570" width="80" height="80" as="geometry"/>
                </mxCell>
                <mxCell id="34" value="" style="whiteSpace=wrap;html=1;fillColor=#999999;gradientColor=none;strokeColor=#000000;" parent="1" vertex="1">
                    <mxGeometry x="174" y="570" width="80" height="80" as="geometry"/>
                </mxCell>
                <mxCell id="35" value="" style="whiteSpace=wrap;html=1;fillColor=#999999;gradientColor=none;strokeColor=#000000;" parent="1" vertex="1">
                    <mxGeometry x="289" y="570" width="80" height="80" as="geometry"/>
                </mxCell>
                <mxCell id="36" value="" style="whiteSpace=wrap;html=1;fillColor=#999999;gradientColor=none;strokeColor=#000000;" parent="1" vertex="1">
                    <mxGeometry x="405" y="570" width="80" height="80" as="geometry"/>
                </mxCell>
                <mxCell id="37" value="" style="whiteSpace=wrap;html=1;strokeColor=#000000;fillColor=#999999;gradientColor=none;" parent="1" vertex="1">
                    <mxGeometry x="20" y="700" width="500" height="250" as="geometry"/>
                </mxCell>
                <mxCell id="68" value="" style="edgeStyle=none;html=1;strokeWidth=3;endArrow=classic;endFill=1;" parent="1" source="38" edge="1">
                    <mxGeometry relative="1" as="geometry">
                        <mxPoint x="270" y="1100" as="targetPoint"/>
                    </mxGeometry>
                </mxCell>
                <mxCell id="38" value="Copyright&lt;span style=&quot;white-space: pre;&quot;&gt;&#9;&lt;/span&gt;&lt;span style=&quot;white-space: pre;&quot;&gt;&#9;&lt;span style=&quot;white-space: pre;&quot;&gt;&#9;&lt;/span&gt;&lt;span style=&quot;white-space: pre;&quot;&gt;&#9;&lt;/span&gt;&lt;/span&gt;&lt;span style=&quot;white-space: pre;&quot;&gt;&#9;&lt;/span&gt;Contact&lt;span style=&quot;white-space: pre;&quot;&gt;&#9;&lt;/span&gt;&lt;span style=&quot;white-space: pre;&quot;&gt;&#9;&lt;span style=&quot;white-space: pre;&quot;&gt;&#9;&lt;/span&gt;&lt;span style=&quot;white-space: pre;&quot;&gt;&#9;&lt;/span&gt;&lt;/span&gt;&lt;span style=&quot;white-space: pre;&quot;&gt;&#9;&lt;/span&gt;Reseaux" style="whiteSpace=wrap;html=1;fillColor=#6b6a6c;" parent="1" vertex="1">
                    <mxGeometry x="21" y="1270" width="500" height="70" as="geometry"/>
                </mxCell>
                <mxCell id="41" value="" style="whiteSpace=wrap;html=1;fillColor=#999999;gradientColor=none;strokeColor=#000000;" parent="1" vertex="1">
                    <mxGeometry x="96" y="730" width="170" height="190" as="geometry"/>
                </mxCell>
                <mxCell id="43" value="" style="edgeStyle=none;orthogonalLoop=1;jettySize=auto;html=1;endArrow=none;endFill=0;entryX=1;entryY=1;entryDx=0;entryDy=0;exitX=0;exitY=0;exitDx=0;exitDy=0;" parent="1" source="41" target="41" edge="1">
                    <mxGeometry width="80" relative="1" as="geometry">
                        <mxPoint x="190" y="880" as="sourcePoint"/>
                        <mxPoint x="270" y="880" as="targetPoint"/>
                        <Array as="points"/>
                    </mxGeometry>
                </mxCell>
                <mxCell id="44" value="" style="edgeStyle=none;orthogonalLoop=1;jettySize=auto;html=1;endArrow=none;endFill=0;entryX=0;entryY=1;entryDx=0;entryDy=0;exitX=1;exitY=0;exitDx=0;exitDy=0;" parent="1" source="41" target="41" edge="1">
                    <mxGeometry width="80" relative="1" as="geometry">
                        <mxPoint x="106.00000000000006" y="740" as="sourcePoint"/>
                        <mxPoint x="276" y="930" as="targetPoint"/>
                        <Array as="points"/>
                    </mxGeometry>
                </mxCell>
                <mxCell id="45" value="" style="edgeStyle=none;orthogonalLoop=1;jettySize=auto;html=1;endArrow=none;endFill=0;entryX=0;entryY=1;entryDx=0;entryDy=0;exitX=1;exitY=0;exitDx=0;exitDy=0;" parent="1" source="32" target="32" edge="1">
                    <mxGeometry width="80" relative="1" as="geometry">
                        <mxPoint x="205" y="375" as="sourcePoint"/>
                        <mxPoint x="35" y="565" as="targetPoint"/>
                        <Array as="points"/>
                    </mxGeometry>
                </mxCell>
                <mxCell id="46" value="" style="edgeStyle=none;orthogonalLoop=1;jettySize=auto;html=1;endArrow=none;endFill=0;entryX=0;entryY=1;entryDx=0;entryDy=0;exitX=1;exitY=0;exitDx=0;exitDy=0;" parent="1" edge="1">
                    <mxGeometry width="80" relative="1" as="geometry">
                        <mxPoint x="331" y="410" as="sourcePoint"/>
                        <mxPoint x="211" y="530" as="targetPoint"/>
                        <Array as="points"/>
                    </mxGeometry>
                </mxCell>
                <mxCell id="47" value="" style="edgeStyle=none;orthogonalLoop=1;jettySize=auto;html=1;endArrow=none;endFill=0;entryX=0;entryY=1;entryDx=0;entryDy=0;exitX=1;exitY=0;exitDx=0;exitDy=0;" parent="1" edge="1">
                    <mxGeometry width="80" relative="1" as="geometry">
                        <mxPoint x="485" y="410" as="sourcePoint"/>
                        <mxPoint x="365" y="530" as="targetPoint"/>
                        <Array as="points"/>
                    </mxGeometry>
                </mxCell>
                <mxCell id="48" value="" style="edgeStyle=none;orthogonalLoop=1;jettySize=auto;html=1;endArrow=none;endFill=0;entryX=1;entryY=1;entryDx=0;entryDy=0;exitX=0;exitY=0;exitDx=0;exitDy=0;" parent="1" source="30" target="30" edge="1">
                    <mxGeometry width="80" relative="1" as="geometry">
                        <mxPoint x="495" y="420" as="sourcePoint"/>
                        <mxPoint x="375" y="540" as="targetPoint"/>
                        <Array as="points"/>
                    </mxGeometry>
                </mxCell>
                <mxCell id="49" value="" style="edgeStyle=none;orthogonalLoop=1;jettySize=auto;html=1;endArrow=none;endFill=0;entryX=1;entryY=1;entryDx=0;entryDy=0;exitX=0;exitY=0;exitDx=0;exitDy=0;" parent="1" edge="1">
                    <mxGeometry width="80" relative="1" as="geometry">
                        <mxPoint x="210" y="410" as="sourcePoint"/>
                        <mxPoint x="330" y="530" as="targetPoint"/>
                        <Array as="points"/>
                    </mxGeometry>
                </mxCell>
                <mxCell id="50" value="" style="edgeStyle=none;orthogonalLoop=1;jettySize=auto;html=1;endArrow=none;endFill=0;entryX=1;entryY=1;entryDx=0;entryDy=0;exitX=0;exitY=0;exitDx=0;exitDy=0;" parent="1" edge="1">
                    <mxGeometry width="80" relative="1" as="geometry">
                        <mxPoint x="60" y="410" as="sourcePoint"/>
                        <mxPoint x="180" y="530" as="targetPoint"/>
                        <Array as="points"/>
                    </mxGeometry>
                </mxCell>
                <mxCell id="51" value="" style="edgeStyle=none;orthogonalLoop=1;jettySize=auto;html=1;endArrow=none;endFill=0;exitX=0;exitY=0;exitDx=0;exitDy=0;" parent="1" edge="1">
                    <mxGeometry width="80" relative="1" as="geometry">
                        <mxPoint x="60" y="570" as="sourcePoint"/>
                        <mxPoint x="140" y="650" as="targetPoint"/>
                        <Array as="points"/>
                    </mxGeometry>
                </mxCell>
                <mxCell id="52" value="" style="edgeStyle=none;orthogonalLoop=1;jettySize=auto;html=1;endArrow=none;endFill=0;exitX=0;exitY=0;exitDx=0;exitDy=0;" parent="1" edge="1">
                    <mxGeometry width="80" relative="1" as="geometry">
                        <mxPoint x="174" y="570" as="sourcePoint"/>
                        <mxPoint x="254" y="650" as="targetPoint"/>
                        <Array as="points"/>
                    </mxGeometry>
                </mxCell>
                <mxCell id="53" value="" style="edgeStyle=none;orthogonalLoop=1;jettySize=auto;html=1;endArrow=none;endFill=0;exitX=0;exitY=0;exitDx=0;exitDy=0;" parent="1" edge="1">
                    <mxGeometry width="80" relative="1" as="geometry">
                        <mxPoint x="289" y="570" as="sourcePoint"/>
                        <mxPoint x="369" y="650" as="targetPoint"/>
                        <Array as="points"/>
                    </mxGeometry>
                </mxCell>
                <mxCell id="54" value="" style="edgeStyle=none;orthogonalLoop=1;jettySize=auto;html=1;endArrow=none;endFill=0;exitX=0;exitY=0;exitDx=0;exitDy=0;" parent="1" edge="1">
                    <mxGeometry width="80" relative="1" as="geometry">
                        <mxPoint x="405" y="570" as="sourcePoint"/>
                        <mxPoint x="485" y="650" as="targetPoint"/>
                        <Array as="points"/>
                    </mxGeometry>
                </mxCell>
                <mxCell id="55" value="" style="edgeStyle=none;orthogonalLoop=1;jettySize=auto;html=1;endArrow=none;endFill=0;exitX=1;exitY=0;exitDx=0;exitDy=0;entryX=0;entryY=1;entryDx=0;entryDy=0;" parent="1" source="36" target="36" edge="1">
                    <mxGeometry width="80" relative="1" as="geometry">
                        <mxPoint x="415" y="580" as="sourcePoint"/>
                        <mxPoint x="495" y="660" as="targetPoint"/>
                        <Array as="points"/>
                    </mxGeometry>
                </mxCell>
                <mxCell id="56" value="" style="edgeStyle=none;orthogonalLoop=1;jettySize=auto;html=1;endArrow=none;endFill=0;exitX=1;exitY=0;exitDx=0;exitDy=0;entryX=0;entryY=1;entryDx=0;entryDy=0;" parent="1" edge="1">
                    <mxGeometry width="80" relative="1" as="geometry">
                        <mxPoint x="369" y="570" as="sourcePoint"/>
                        <mxPoint x="289" y="650" as="targetPoint"/>
                        <Array as="points"/>
                    </mxGeometry>
                </mxCell>
                <mxCell id="57" value="" style="edgeStyle=none;orthogonalLoop=1;jettySize=auto;html=1;endArrow=none;endFill=0;exitX=1;exitY=0;exitDx=0;exitDy=0;entryX=0;entryY=1;entryDx=0;entryDy=0;" parent="1" edge="1">
                    <mxGeometry width="80" relative="1" as="geometry">
                        <mxPoint x="140" y="570" as="sourcePoint"/>
                        <mxPoint x="60" y="650" as="targetPoint"/>
                        <Array as="points"/>
                    </mxGeometry>
                </mxCell>
                <mxCell id="58" value="" style="edgeStyle=none;orthogonalLoop=1;jettySize=auto;html=1;endArrow=none;endFill=0;exitX=1;exitY=0;exitDx=0;exitDy=0;entryX=0;entryY=1;entryDx=0;entryDy=0;" parent="1" edge="1">
                    <mxGeometry width="80" relative="1" as="geometry">
                        <mxPoint x="254" y="570" as="sourcePoint"/>
                        <mxPoint x="174" y="650" as="targetPoint"/>
                        <Array as="points"/>
                    </mxGeometry>
                </mxCell>
                <mxCell id="59" value="Zone de texte" style="whiteSpace=wrap;html=1;fillColor=#999999;gradientColor=none;strokeColor=none;dashed=1;" parent="1" vertex="1">
                    <mxGeometry x="299" y="730" width="170" height="190" as="geometry"/>
                </mxCell>
                <mxCell id="69" value="" style="whiteSpace=wrap;html=1;strokeColor=#000000;fillColor=#FFFFFF;gradientColor=none;" parent="1" vertex="1">
                    <mxGeometry x="21" y="950" width="500" height="180" as="geometry"/>
                </mxCell>
                <mxCell id="70" value="" style="whiteSpace=wrap;html=1;strokeColor=default;fillColor=#B3B3B3;gradientColor=none;rounded=1;" parent="1" vertex="1">
                    <mxGeometry x="141" y="981" width="114" height="20" as="geometry"/>
                </mxCell>
                <mxCell id="71" value="" style="whiteSpace=wrap;html=1;strokeColor=default;fillColor=#B3B3B3;gradientColor=none;rounded=1;" parent="1" vertex="1">
                    <mxGeometry x="141" y="1021" width="114" height="20" as="geometry"/>
                </mxCell>
                <mxCell id="72" value="" style="whiteSpace=wrap;html=1;strokeColor=default;fillColor=#B3B3B3;gradientColor=none;rounded=1;" parent="1" vertex="1">
                    <mxGeometry x="141" y="1061" width="114" height="20" as="geometry"/>
                </mxCell>
                <mxCell id="74" value="" style="whiteSpace=wrap;html=1;strokeColor=default;fillColor=#B3B3B3;gradientColor=none;rounded=1;" parent="1" vertex="1">
                    <mxGeometry x="290" y="980" width="114" height="20" as="geometry"/>
                </mxCell>
                <mxCell id="75" value="" style="whiteSpace=wrap;html=1;strokeColor=default;fillColor=#B3B3B3;gradientColor=none;rounded=1;" parent="1" vertex="1">
                    <mxGeometry x="290" y="1020" width="114" height="20" as="geometry"/>
                </mxCell>
                <mxCell id="76" value="" style="whiteSpace=wrap;html=1;strokeColor=default;fillColor=#B3B3B3;gradientColor=none;rounded=1;" parent="1" vertex="1">
                    <mxGeometry x="290" y="1060" width="114" height="20" as="geometry"/>
                </mxCell>
                <mxCell id="77" value="" style="whiteSpace=wrap;html=1;strokeColor=default;fillColor=#B3B3B3;gradientColor=none;rounded=1;" parent="1" vertex="1">
                    <mxGeometry x="236" y="1100" width="70" height="20" as="geometry"/>
                </mxCell>
                <mxCell id="79" value="" style="whiteSpace=wrap;html=1;strokeColor=#000000;fillColor=#999999;gradientColor=none;" parent="1" vertex="1">
                    <mxGeometry x="21" y="1130" width="500" height="140" as="geometry"/>
                </mxCell>
                <mxCell id="80" value="Avis client" style="whiteSpace=wrap;html=1;fillColor=#999999;gradientColor=none;strokeColor=#000000;" parent="1" vertex="1">
                    <mxGeometry x="186" y="1160" width="170" height="80" as="geometry"/>
                </mxCell>
                <mxCell id="81" value="&lt;span style=&quot;white-space: pre;&quot;&gt;&#9;&lt;/span&gt;Avis client" style="whiteSpace=wrap;html=1;fillColor=#999999;gradientColor=none;strokeColor=#000000;" parent="1" vertex="1">
                    <mxGeometry x="425" y="1160" width="95" height="80" as="geometry"/>
                </mxCell>
                <mxCell id="82" value="Avis client&lt;span style=&quot;white-space: pre;&quot;&gt;&#9;&lt;/span&gt;" style="whiteSpace=wrap;html=1;fillColor=#999999;gradientColor=none;strokeColor=#000000;" parent="1" vertex="1">
                    <mxGeometry x="20" y="1160" width="100" height="80" as="geometry"/>
                </mxCell>
                <mxCell id="83" value="Logo&lt;span style=&quot;white-space: pre;&quot;&gt;&#9;&lt;/span&gt;&lt;span style=&quot;white-space: pre;&quot;&gt;&#9;&lt;/span&gt;&lt;span style=&quot;white-space: pre;&quot;&gt;&#9;&lt;/span&gt;" style="whiteSpace=wrap;html=1;" vertex="1" parent="1">
                    <mxGeometry x="1013" y="90" width="57" height="60" as="geometry"/>
                </mxCell>
                <mxCell id="84" value="Slider" style="whiteSpace=wrap;html=1;fillColor=#6b6a6c;" vertex="1" parent="1">
                    <mxGeometry x="1013" y="150" width="500" height="220" as="geometry"/>
                </mxCell>
                <mxCell id="85" value="" style="edgeStyle=none;orthogonalLoop=1;jettySize=auto;html=1;endArrow=none;endFill=0;" edge="1" parent="1">
                    <mxGeometry width="80" relative="1" as="geometry">
                        <mxPoint x="1053" y="250" as="sourcePoint"/>
                        <mxPoint x="1053" y="270" as="targetPoint"/>
                        <Array as="points">
                            <mxPoint x="1033" y="260"/>
                        </Array>
                    </mxGeometry>
                </mxCell>
                <mxCell id="86" value="" style="edgeStyle=none;orthogonalLoop=1;jettySize=auto;html=1;endArrow=none;endFill=0;" edge="1" parent="1">
                    <mxGeometry width="80" relative="1" as="geometry">
                        <mxPoint x="1473" y="250" as="sourcePoint"/>
                        <mxPoint x="1473" y="270" as="targetPoint"/>
                        <Array as="points">
                            <mxPoint x="1493" y="260"/>
                        </Array>
                    </mxGeometry>
                </mxCell>
                <mxCell id="87" value="" style="shape=stencil(tZRtDsIgDIZPw1/DRzyAQb0Hus4RERZAp7e3GzOR6dSYLSEkfQtPXwKFCBkqVQPhtCJiTThnlOKMcTOIVahhH5N4UV6rnYGUCdG7IzS6iD1D2wq8jm1WbAhd4Zp2CLl31iJEOxuyzFMeYUpb3EuvCdaXv2VRjfwTRPC9yaQSvv0du1jOA2Yz+c2xD/eT+50OnDtmc13cZGD2P1ZIVMYet5Cl83Dw7myLt2ZKbUzqoQ+OwRhdB/jSF8OmHTb1GH20fHeyF/+dmj6OTrgD);whiteSpace=wrap;html=1;gradientColor=default;" vertex="1" parent="1">
                    <mxGeometry x="1237" y="340" width="10" height="10" as="geometry"/>
                </mxCell>
                <mxCell id="88" value="" style="shape=stencil(tZRtDsIgDIZPw1/DRzyAQb0Hus4RERZAp7e3GzOR6dSYLSEkfQtPXwKFCBkqVQPhtCJiTThnlOKMcTOIVahhH5N4UV6rnYGUCdG7IzS6iD1D2wq8jm1WbAhd4Zp2CLl31iJEOxuyzFMeYUpb3EuvCdaXv2VRjfwTRPC9yaQSvv0du1jOA2Yz+c2xD/eT+50OnDtmc13cZGD2P1ZIVMYet5Cl83Dw7myLt2ZKbUzqoQ+OwRhdB/jSF8OmHTb1GH20fHeyF/+dmj6OTrgD);whiteSpace=wrap;html=1;gradientColor=default;" vertex="1" parent="1">
                    <mxGeometry x="1259" y="340" width="10" height="10" as="geometry"/>
                </mxCell>
                <mxCell id="89" value="" style="shape=stencil(tZRtDsIgDIZPw1/DRzyAQb0Hus4RERZAp7e3GzOR6dSYLSEkfQtPXwKFCBkqVQPhtCJiTThnlOKMcTOIVahhH5N4UV6rnYGUCdG7IzS6iD1D2wq8jm1WbAhd4Zp2CLl31iJEOxuyzFMeYUpb3EuvCdaXv2VRjfwTRPC9yaQSvv0du1jOA2Yz+c2xD/eT+50OnDtmc13cZGD2P1ZIVMYet5Cl83Dw7myLt2ZKbUzqoQ+OwRhdB/jSF8OmHTb1GH20fHeyF/+dmj6OTrgD);whiteSpace=wrap;html=1;gradientColor=default;" vertex="1" parent="1">
                    <mxGeometry x="1282" y="340" width="10" height="10" as="geometry"/>
                </mxCell>
                <mxCell id="90" value="" style="whiteSpace=wrap;html=1;fillColor=#FFFFFF;gradientColor=none;" vertex="1" parent="1">
                    <mxGeometry x="1013" y="370" width="500" height="1300" as="geometry"/>
                </mxCell>
                <mxCell id="93" value="" style="whiteSpace=wrap;html=1;fillColor=#999999;gradientColor=none;strokeColor=#000000;" vertex="1" parent="1">
                    <mxGeometry x="1076" y="427" width="377" height="350" as="geometry"/>
                </mxCell>
                <mxCell id="104" value="" style="edgeStyle=none;orthogonalLoop=1;jettySize=auto;html=1;endArrow=none;endFill=0;entryX=0;entryY=1;entryDx=0;entryDy=0;exitX=1;exitY=0;exitDx=0;exitDy=0;" edge="1" parent="1" source="93" target="93">
                    <mxGeometry width="80" relative="1" as="geometry">
                        <mxPoint x="1198" y="385" as="sourcePoint"/>
                        <mxPoint x="1028" y="575" as="targetPoint"/>
                        <Array as="points"/>
                    </mxGeometry>
                </mxCell>
                <mxCell id="109" value="" style="edgeStyle=none;orthogonalLoop=1;jettySize=auto;html=1;endArrow=none;endFill=0;entryX=1;entryY=1;entryDx=0;entryDy=0;exitX=0;exitY=0;exitDx=0;exitDy=0;" edge="1" parent="1" source="93" target="93">
                    <mxGeometry width="80" relative="1" as="geometry">
                        <mxPoint x="1053" y="420" as="sourcePoint"/>
                        <mxPoint x="1173" y="540" as="targetPoint"/>
                        <Array as="points"/>
                    </mxGeometry>
                </mxCell>
                <mxCell id="131" value="" style="whiteSpace=wrap;html=1;" vertex="1" parent="1">
                    <mxGeometry x="1062" y="90" width="450" height="60" as="geometry"/>
                </mxCell>
                <mxCell id="136" value="" style="whiteSpace=wrap;html=1;" vertex="1" parent="1">
                    <mxGeometry x="1450" y="100" width="50" height="40" as="geometry"/>
                </mxCell>
                <mxCell id="142" value="" style="orthogonalLoop=1;jettySize=auto;html=1;rounded=1;labelBackgroundColor=default;strokeColor=default;fontFamily=Helvetica;fontSize=11;fontColor=default;endArrow=classic;shape=link;width=5;" edge="1" parent="1">
                    <mxGeometry width="80" relative="1" as="geometry">
                        <mxPoint x="1455" y="117" as="sourcePoint"/>
                        <mxPoint x="1494" y="117" as="targetPoint"/>
                    </mxGeometry>
                </mxCell>
                <mxCell id="143" value="" style="orthogonalLoop=1;jettySize=auto;html=1;rounded=1;labelBackgroundColor=default;strokeColor=default;fontFamily=Helvetica;fontSize=11;fontColor=default;endArrow=classic;shape=link;width=5;" edge="1" parent="1">
                    <mxGeometry width="80" relative="1" as="geometry">
                        <mxPoint x="1455.5" y="121.94" as="sourcePoint"/>
                        <mxPoint x="1494.5" y="121.94" as="targetPoint"/>
                    </mxGeometry>
                </mxCell>
                <mxCell id="145" value="" style="whiteSpace=wrap;html=1;fillColor=#999999;gradientColor=none;strokeColor=#000000;" vertex="1" parent="1">
                    <mxGeometry x="1076" y="847" width="377" height="350" as="geometry"/>
                </mxCell>
                <mxCell id="146" value="" style="edgeStyle=none;orthogonalLoop=1;jettySize=auto;html=1;endArrow=none;endFill=0;entryX=0;entryY=1;entryDx=0;entryDy=0;exitX=1;exitY=0;exitDx=0;exitDy=0;" edge="1" parent="1" source="145" target="145">
                    <mxGeometry width="80" relative="1" as="geometry">
                        <mxPoint x="1198" y="805" as="sourcePoint"/>
                        <mxPoint x="1028" y="995" as="targetPoint"/>
                        <Array as="points"/>
                    </mxGeometry>
                </mxCell>
                <mxCell id="147" value="" style="edgeStyle=none;orthogonalLoop=1;jettySize=auto;html=1;endArrow=none;endFill=0;entryX=1;entryY=1;entryDx=0;entryDy=0;exitX=0;exitY=0;exitDx=0;exitDy=0;" edge="1" parent="1" target="145" source="145">
                    <mxGeometry width="80" relative="1" as="geometry">
                        <mxPoint x="1052.9999999999995" y="840" as="sourcePoint"/>
                        <mxPoint x="1173" y="960" as="targetPoint"/>
                        <Array as="points"/>
                    </mxGeometry>
                </mxCell>
                <mxCell id="148" value="" style="whiteSpace=wrap;html=1;fillColor=#999999;gradientColor=none;strokeColor=#000000;" vertex="1" parent="1">
                    <mxGeometry x="1073" y="1260" width="377" height="350" as="geometry"/>
                </mxCell>
                <mxCell id="149" value="" style="edgeStyle=none;orthogonalLoop=1;jettySize=auto;html=1;endArrow=none;endFill=0;entryX=0;entryY=1;entryDx=0;entryDy=0;exitX=1;exitY=0;exitDx=0;exitDy=0;" edge="1" parent="1">
                    <mxGeometry width="80" relative="1" as="geometry">
                        <mxPoint x="1449.9999999999995" y="1259.9999999999998" as="sourcePoint"/>
                        <mxPoint x="1073" y="1609.9999999999998" as="targetPoint"/>
                        <Array as="points"/>
                    </mxGeometry>
                </mxCell>
                <mxCell id="150" value="" style="edgeStyle=none;orthogonalLoop=1;jettySize=auto;html=1;endArrow=none;endFill=0;entryX=1;entryY=1;entryDx=0;entryDy=0;exitX=0;exitY=0;exitDx=0;exitDy=0;" edge="1" parent="1">
                    <mxGeometry width="80" relative="1" as="geometry">
                        <mxPoint x="1073" y="1259.9999999999998" as="sourcePoint"/>
                        <mxPoint x="1449.9999999999995" y="1609.9999999999998" as="targetPoint"/>
                        <Array as="points"/>
                    </mxGeometry>
                </mxCell>
                <mxCell id="151" value="" style="whiteSpace=wrap;html=1;strokeColor=#000000;fillColor=#999999;gradientColor=none;" vertex="1" parent="1">
                    <mxGeometry x="1014.5" y="1670" width="498.5" height="420" as="geometry"/>
                </mxCell>
                <mxCell id="152" value="" style="whiteSpace=wrap;html=1;fillColor=#FFFFFF;gradientColor=none;strokeColor=#000000;" vertex="1" parent="1">
                    <mxGeometry x="1076" y="1700" width="377" height="350" as="geometry"/>
                </mxCell>
                <mxCell id="153" value="" style="edgeStyle=none;orthogonalLoop=1;jettySize=auto;html=1;endArrow=none;endFill=0;entryX=0;entryY=1;entryDx=0;entryDy=0;exitX=1;exitY=0;exitDx=0;exitDy=0;strokeColor=#999999;" edge="1" parent="1">
                    <mxGeometry width="80" relative="1" as="geometry">
                        <mxPoint x="1452.9999999999995" y="1699.9999999999998" as="sourcePoint"/>
                        <mxPoint x="1076" y="2049.9999999999995" as="targetPoint"/>
                        <Array as="points"/>
                    </mxGeometry>
                </mxCell>
                <mxCell id="154" value="" style="edgeStyle=none;orthogonalLoop=1;jettySize=auto;html=1;endArrow=none;endFill=0;entryX=1;entryY=1;entryDx=0;entryDy=0;exitX=0;exitY=0;exitDx=0;exitDy=0;strokeColor=#999999;" edge="1" parent="1">
                    <mxGeometry width="80" relative="1" as="geometry">
                        <mxPoint x="1076" y="1699.9999999999998" as="sourcePoint"/>
                        <mxPoint x="1452.9999999999995" y="2049.9999999999995" as="targetPoint"/>
                        <Array as="points"/>
                    </mxGeometry>
                </mxCell>
            </root>
        </mxGraphModel>
    </diagram>
</mxfile>